<svg xmlns="http://www.w3.org/2000/svg" version="1.1" xmlns:xlink="http://www.w3.org/1999/xlink" xmlns:svgjs="http://svgjs.dev/svgjs" width="1500" height="746" viewBox="0 0 1500 746"><g transform="matrix(1,0,0,1,-0.9090909090911055,-0.030040799060714107)"><svg viewBox="0 0 396 197" data-background-color="#000000" preserveAspectRatio="xMidYMid meet" height="746" width="1500" xmlns="http://www.w3.org/2000/svg" xmlns:xlink="http://www.w3.org/1999/xlink"><g id="tight-bounds" transform="matrix(1,0,0,1,0.24000000000003752,0.00793302602541246)"><svg viewBox="0 0 395.5199999999999 196.98413394794918" height="196.98413394794918" width="395.5199999999999"><g><svg viewBox="0 0 861.3333175349499 428.97703680000006" height="196.98413394794918" width="395.5199999999999"><g transform="matrix(1,0,0,1,0,64.4934851676293)"><svg viewBox="0 0 395.52 299.99006646474146" height="299.99006646474146" width="395.52"><g id="textblocktransform"><svg viewBox="0 0 395.52 299.99006646474146" height="299.99006646474146" width="395.52" id="textblock"><g><svg viewBox="0 0 395.52 156.0356865371735" height="156.0356865371735" width="395.52"><g transform="matrix(1,0,0,1,0,0)"><svg width="395.52" viewBox="3 -29.45 74.65 29.45" height="156.0356865371735" data-palette-color="#f6f6f6"><path d="M28.2 0L9.65 0Q6.25 0 4.65-0.3 3.05-0.6 3.05-1L3.05-1 6.05-7.45Q7.2-7.25 10.8-7.08 14.4-6.9 20.15-6.9L20.15-6.9 24.1-6.9Q25.85-6.9 26.45-7.4 27.05-7.9 27.05-8.85L27.05-8.85 27.05-9.35Q27.05-10.55 26.45-11 25.85-11.45 24.1-11.45L24.1-11.45 12.65-11.45Q7.6-11.45 5.3-13.33 3-15.2 3-19.45L3-19.45 3-21.25Q3-23.45 3.83-25.3 4.65-27.15 6.65-28.28 8.65-29.4 12.15-29.4L12.15-29.4 28.75-29.4Q31.8-29.4 33.83-29.05 35.85-28.7 35.85-28.3L35.85-28.3 34.35-22.1Q32.95-22.25 29.08-22.43 25.2-22.6 19.25-22.6L19.25-22.6 15.65-22.65Q14.1-22.65 13.45-22.23 12.8-21.8 12.75-20.65L12.75-20.65 12.75-20.3Q12.75-19.15 13.45-18.7 14.15-18.25 15.7-18.25L15.7-18.25 26.7-18.25Q29.9-18.25 32.15-17.6 34.4-16.95 35.6-15.23 36.8-13.5 36.8-10.15L36.8-10.15 36.8-8.35Q36.8-4.6 34.88-2.3 32.95 0 28.2 0L28.2 0ZM68.6 0L43.8 0 43.8-29.45 66.6-29.45Q71.3-29.45 73.45-27.58 75.6-25.7 75.6-23.05L75.6-23.05 75.6-21.55Q75.6-19.5 74.72-18.18 73.85-16.85 72.85-16.3L72.85-16.3Q75.05-15.6 76.35-13.88 77.65-12.15 77.65-9.35L77.65-9.35 77.65-8.45Q77.65-6.95 77.3-5.45 76.95-3.95 75.97-2.73 75-1.5 73.22-0.75 71.45 0 68.6 0L68.6 0ZM53.55-22.6L53.55-18.1 63.55-18.1Q64.85-18.1 65.35-18.65 65.85-19.2 65.85-20.15L65.85-20.15 65.85-20.65Q65.85-21.7 65.35-22.15 64.85-22.6 63.1-22.6L63.1-22.6 53.55-22.6ZM53.55-11.75L53.55-6.85 65.6-6.85Q66.9-6.85 67.4-7.33 67.9-7.8 67.9-8.85L67.9-8.85 67.9-9.75Q67.9-10.7 67.25-11.23 66.6-11.75 65-11.75L65-11.75 53.55-11.75Z" opacity="1" transform="matrix(1,0,0,1,0,0)" fill="#f6f6f6" class="wordmark-text-0" data-fill-palette-color="primary" id="text-0"></path></svg></g></svg></g><g transform="matrix(1,0,0,1,19.77600000000001,192.87196727212324)"><svg viewBox="0 0 375.74399999999997 107.11809919261822" height="107.11809919261822" width="375.74399999999997"><g transform="matrix(1,0,0,1,0,0)"><svg width="375.74399999999997" viewBox="3.25 -35.45 126.99000000000001 36.21" height="107.11809919261822" data-palette-color="#f3f3f3"><path d="M31.25-10.5L31.25-10.5Q31.25-8.33 30.42-6.42 29.59-4.52 28.16-3.09 26.73-1.66 24.83-0.83 22.92 0 20.75 0L20.75 0 3.25 0 3.25-35.01 20.75-35.01Q22.92-35.01 24.83-34.18 26.73-33.35 28.16-31.92 29.59-30.49 30.42-28.59 31.25-26.68 31.25-24.51L31.25-24.51Q31.25-23.54 30.98-22.51 30.71-21.48 30.22-20.53 29.74-19.58 29.05-18.8 28.37-18.02 27.54-17.5L27.54-17.5Q28.39-17.04 29.08-16.25 29.76-15.45 30.25-14.5 30.74-13.55 30.99-12.51 31.25-11.47 31.25-10.5ZM10.25-13.99L10.25-7.01 20.75-7.01Q21.48-7.01 22.12-7.28 22.75-7.54 23.23-8.02 23.71-8.5 23.97-9.13 24.24-9.77 24.24-10.5L24.24-10.5Q24.24-11.23 23.97-11.87 23.71-12.5 23.23-12.98 22.75-13.45 22.12-13.72 21.48-13.99 20.75-13.99L20.75-13.99 10.25-13.99ZM10.25-28L10.25-21 20.75-21Q21.48-21 22.12-21.26 22.75-21.53 23.23-22.01 23.71-22.49 23.97-23.13 24.24-23.78 24.24-24.51L24.24-24.51Q24.24-25.24 23.97-25.88 23.71-26.51 23.23-26.99 22.75-27.47 22.12-27.73 21.48-28 20.75-28L20.75-28 10.25-28ZM61.06-7.01L61.06 0 36.55 0 36.55-35.01 43.55-35.01 43.55-7.01 61.06-7.01ZM97.8-17.36L97.8-17.36Q97.8-14.87 97.15-12.56 96.5-10.25 95.33-8.24 94.16-6.23 92.5-4.57 90.84-2.91 88.84-1.72 86.84-0.54 84.52 0.11 82.2 0.76 79.71 0.76L79.71 0.76Q77.22 0.76 74.91 0.11 72.6-0.54 70.59-1.72 68.57-2.91 66.91-4.57 65.25-6.23 64.07-8.24 62.89-10.25 62.24-12.56 61.59-14.87 61.59-17.36L61.59-17.36Q61.59-19.85 62.24-22.17 62.89-24.49 64.07-26.49 65.25-28.49 66.91-30.15 68.57-31.81 70.59-32.98 72.6-34.16 74.91-34.8 77.22-35.45 79.71-35.45L79.71-35.45Q82.2-35.45 84.52-34.8 86.84-34.16 88.84-32.98 90.84-31.81 92.5-30.15 94.16-28.49 95.33-26.49 96.5-24.49 97.15-22.17 97.8-19.85 97.8-17.36ZM90.84-17.36L90.84-17.36Q90.84-19.65 89.96-21.69 89.08-23.73 87.58-25.23 86.08-26.73 84.04-27.61 82-28.49 79.71-28.49L79.71-28.49Q77.39-28.49 75.36-27.61 73.33-26.73 71.82-25.23 70.31-23.73 69.43-21.69 68.55-19.65 68.55-17.36L68.55-17.36Q68.55-15.06 69.43-13.05 70.31-11.04 71.82-9.52 73.33-8.01 75.36-7.13 77.39-6.25 79.71-6.25L79.71-6.25Q82-6.25 84.04-7.13 86.08-8.01 87.58-9.52 89.08-11.04 89.96-13.05 90.84-15.06 90.84-17.36ZM130.24-17.36L130.24-3.54Q127.8-1.46 124.8-0.35 121.79 0.76 118.55 0.76L118.55 0.76Q116.06 0.76 113.75 0.11 111.44-0.54 109.44-1.72 107.44-2.91 105.78-4.55 104.12-6.2 102.95-8.22 101.77-10.23 101.13-12.55 100.48-14.87 100.48-17.36L100.48-17.36Q100.48-19.85 101.13-22.14 101.77-24.44 102.95-26.45 104.12-28.47 105.78-30.11 107.44-31.76 109.44-32.93 111.44-34.11 113.75-34.75 116.06-35.4 118.55-35.4L118.55-35.4Q121.79-35.4 124.8-34.29 127.8-33.18 130.24-31.1L130.24-31.1 126.58-25Q124.99-26.61 122.92-27.53 120.84-28.44 118.55-28.44L118.55-28.44Q116.25-28.44 114.24-27.56 112.22-26.68 110.71-25.18 109.2-23.68 108.32-21.67 107.44-19.65 107.44-17.36L107.44-17.36Q107.44-15.04 108.32-13.01 109.2-10.99 110.71-9.47 112.22-7.96 114.24-7.08 116.25-6.2 118.55-6.2L118.55-6.2Q119.87-6.2 121.11-6.52 122.36-6.84 123.48-7.4L123.48-7.4 123.48-17.36 130.24-17.36Z" opacity="1" transform="matrix(1,0,0,1,0,0)" fill="#f3f3f3" class="slogan-text-1" data-fill-palette-color="secondary" id="text-1"></path></svg></g></svg></g></svg></g></svg></g><g transform="matrix(1,0,0,1,432.35628073494973,0)"><svg viewBox="0 0 428.97703680000006 428.97703680000006" height="428.97703680000006" width="428.97703680000006"><g><svg></svg></g><g id="icon-0"><svg viewBox="0 0 428.97703680000006 428.97703680000006" height="428.97703680000006" width="428.97703680000006"><g><rect width="390.05134272000004" height="390.05134272000004" x="19.462847040000014" y="19.462847040000014" fill="#ffffff" data-fill-palette-color="accent"></rect><rect width="390.05134272000004" height="390.05134272000004" x="1.4210854715202004e-14" y="1.4210854715202004e-14" fill="#ffffff" opacity="0.5" data-fill-palette-color="accent"></rect></g><g transform="matrix(1,0,0,1,106.61756435200007,55.60813440000001)"><svg viewBox="0 0 215.74190809599992 317.76076800000004" height="317.76076800000004" width="215.74190809599992"><g><svg xmlns="http://www.w3.org/2000/svg" xmlns:xlink="http://www.w3.org/1999/xlink" version="1.1" x="0" y="0" viewBox="19.448 5 61.10499999999997 90" enable-background="new 0 0 100 100" xml:space="preserve" height="317.76076800000004" width="215.74190809599992" class="icon-cg-0" data-fill-palette-color="quaternary" id="cg-0"><g fill="#000000" data-fill-palette-color="quaternary"><path d="M64.213 54.234c0.142-0.233 0.067-0.539-0.167-0.679-2.726-1.65-5.617-0.794-8.146 2.405-0.169 0.214-0.132 0.525 0.082 0.696 0.09 0.071 0.199 0.105 0.307 0.105 0.146 0 0.291-0.063 0.389-0.188 0.216-0.273 0.453-0.546 0.702-0.81 0.287 0.089 0.626 0.256 1.011 0.448 0.906 0.452 2.081 1.039 3.541 1.039 0.347 0 0.711-0.033 1.091-0.11 0.268-0.054 0.441-0.314 0.388-0.583-0.053-0.269-0.315-0.441-0.583-0.388-1.64 0.331-2.947-0.322-3.995-0.845-0.229-0.114-0.444-0.22-0.652-0.313 0.523-0.432 1.099-0.793 1.718-1.021-0.013 0.081-0.025 0.162-0.025 0.246 0 0.815 0.664 1.48 1.479 1.48 0.816 0 1.48-0.665 1.48-1.48 0-0.065-0.012-0.127-0.02-0.19 0.236 0.096 0.476 0.208 0.719 0.355C63.771 54.544 64.072 54.468 64.213 54.234zM61.353 54.728c-0.27 0-0.49-0.221-0.49-0.49 0-0.271 0.22-0.491 0.49-0.491 0.271 0 0.49 0.22 0.49 0.491C61.843 54.507 61.624 54.728 61.353 54.728z" fill="#000000" data-fill-palette-color="quaternary"></path><path d="M78.481 18.966c-1.143 0-2.072 0.929-2.072 2.07 0 0.314 0.075 0.607 0.2 0.874l-10.897 8.792V16.666c0.902-0.223 1.576-1.033 1.576-2.004 0-1.142-0.929-2.07-2.071-2.07-1.142 0-2.07 0.929-2.07 2.07 0 0.514 0.195 0.979 0.506 1.341l-7.655 10.73L51.34 10.911c1.045-0.502 1.773-1.562 1.773-2.797C53.113 6.396 51.717 5 50.001 5c-1.717 0-3.112 1.396-3.112 3.113 0 1.235 0.728 2.294 1.773 2.797l-4.657 15.82-7.652-10.728c0.311-0.363 0.506-0.827 0.506-1.341 0-1.142-0.929-2.07-2.071-2.07-1.142 0-2.07 0.929-2.07 2.07 0 0.971 0.673 1.781 1.575 2.004v14.036l-10.899-8.792c0.125-0.266 0.199-0.56 0.199-0.874 0-1.141-0.929-2.07-2.071-2.07-1.144 0-2.074 0.929-2.074 2.07 0 1.144 0.93 2.073 2.074 2.073 0.233 0 0.455-0.047 0.665-0.12l8.251 12.856c-0.738 0.25-1.274 0.941-1.274 1.762 0 1.03 0.838 1.869 1.869 1.869h0.606c1.662 0 3.014 1.353 3.014 3.016 0 1.663-1.352 3.016-3.014 3.016-0.019 0-0.034 0.009-0.053 0.011-0.019 0.001-0.037-0.003-0.055 0.001-0.015 0.003-0.026 0.014-0.041 0.018-0.033 0.011-0.062 0.024-0.09 0.041-0.027 0.015-0.054 0.032-0.079 0.052-0.022 0.021-0.043 0.043-0.062 0.066-0.021 0.026-0.039 0.052-0.055 0.081-0.013 0.026-0.023 0.054-0.032 0.082-0.01 0.034-0.018 0.067-0.02 0.103-0.002 0.014-0.009 0.026-0.009 0.042 0 0.018 0.009 0.033 0.01 0.05 0.002 0.02-0.003 0.039 0.001 0.058l0.47 2.098c0.051 0.226 0.251 0.387 0.483 0.387h1.948c-0.719 1.241-0.833 2.918-0.843 5.928-0.408 0.069-0.786 0.216-1.114 0.436-0.783 0.525-1.292 1.426-1.292 2.474 0 1.199 0.434 1.976 1.535 2.703v0.092c-0.947 0.198-1.535 1.003-1.535 2.165 0 0.943 0.45 1.721 1.17 2.167-0.711 0.534-1.17 1.388-1.17 2.377 0 1.198 0.434 1.976 1.535 2.704v0.091c-0.947 0.198-1.535 1.003-1.535 2.164 0 0.944 0.45 1.721 1.17 2.167-0.711 0.535-1.17 1.389-1.17 2.378 0 1.198 0.434 1.976 1.535 2.704v0.091c-0.947 0.197-1.535 1.004-1.535 2.164 0 1.493 1.123 2.577 2.669 2.577 0.826 0 1.559-0.338 2.082-0.886 0.505-0.531 0.815-1.257 0.815-2.073 0-0.118-0.008-0.23-0.017-0.341 2.461-0.462 4.796-1.525 6.938-3.096 3.472 2.417 6.488 6.041 9.155 9.256C56.083 91.218 59.22 95 62.675 95c1.412 0 2.609-0.72 3.462-2.084 2.247-3.592 1.804-11.18-0.981-16.946-0.445-1.361-0.496-2.202-0.172-3.379 1.247-0.815 1.897-1.972 1.95-3.094 0.032-0.689-0.171-1.286-0.591-1.725-0.859-0.902-2.478-0.957-4.22-0.11-0.412 0.199-0.791 0.392-1.145 0.571-1.541 0.784-2.577 1.312-3.841 1.128-0.979-0.141-2.408-0.854-3.129-1.896-0.123-0.179-0.346-0.257-0.556-0.192-0.207 0.065-0.347 0.258-0.346 0.475 0.012 2.637 2.733 5.339 5.823 5.785 0.667 0.095 1.311 0.144 1.916 0.144 1.19 0 2.177-0.203 3.01-0.519-0.141 0.94-0.044 1.77 0.246 2.751-0.726 0.558-0.968 1.433-1.183 2.217-0.217 0.787-0.404 1.466-1.007 1.717-1.424 0.589-2.32-0.151-4.388-2.032-1.854-1.687-4.388-3.969-8.71-5.991 3.228-4.603 5.521-10.645 6.408-17.43 0.48-0.515 4.266-4.347 8.643-2.12 0.24 0.124 0.541 0.027 0.666-0.216 0.124-0.244 0.027-0.542-0.217-0.667-3.878-1.974-7.309 0.159-8.918 1.496 0.138-1.403 0.214-2.834 0.229-4.288H65.77l0.059 0.21c0.411 1.425 0.764 2.655 0.163 4.496-0.156 0.476-0.37 0.875-0.559 1.226-0.357 0.666-0.695 1.294-0.42 2.078 0.083 0.232 0.26 0.545 0.505 0.977 0.793 1.395 2.269 3.992 2.269 7.1 0 0.356-0.263 0.725-0.703 0.725h-4.451c-1.021 0-1.63-0.417-1.63-1.116 0-0.357 0.166-0.738 0.444-1.021 0.221-0.225 0.613-0.494 1.218-0.494 0.273 0 0.495-0.222 0.495-0.496 0-0.272-0.222-0.494-0.495-0.494-0.74 0-1.423 0.28-1.924 0.79-0.463 0.47-0.728 1.096-0.728 1.715 0 0.971 0.686 2.106 2.62 2.106h4.451c0.949 0 1.693-0.753 1.693-1.715 0-3.369-1.56-6.114-2.397-7.589-0.204-0.358-0.38-0.668-0.433-0.817-0.125-0.353 0.029-0.665 0.358-1.28 0.208-0.387 0.444-0.826 0.627-1.385 0.686-2.099 0.278-3.584-0.133-5.014h1.094c0.232 0 0.432-0.161 0.483-0.387l0.469-2.098c0.004-0.02-0.001-0.039 0.001-0.059 0.001-0.017 0.01-0.032 0.01-0.05 0-0.015-0.007-0.027-0.009-0.042-0.002-0.035-0.01-0.067-0.019-0.1-0.01-0.03-0.02-0.059-0.035-0.086-0.014-0.026-0.031-0.051-0.05-0.075-0.021-0.026-0.043-0.051-0.069-0.072-0.022-0.019-0.045-0.033-0.07-0.047-0.031-0.018-0.063-0.033-0.098-0.044-0.013-0.004-0.023-0.013-0.037-0.017-0.017-0.004-0.033 0-0.051-0.001-0.02-0.003-0.037-0.012-0.057-0.012-1.661 0-3.013-1.354-3.013-3.015 0-1.663 1.352-3.016 3.013-3.016h0.606c1.031 0 1.869-0.838 1.869-1.868 0-0.821-0.535-1.512-1.272-1.763l8.251-12.856c0.21 0.072 0.432 0.12 0.666 0.12 1.143 0 2.072-0.93 2.072-2.073C80.553 19.895 79.624 18.966 78.481 18.966zM21.521 22.119c-0.598 0-1.084-0.486-1.084-1.083 0-0.595 0.486-1.08 1.084-1.08 0.597 0 1.082 0.485 1.082 1.08 0 0.072-0.028 0.135-0.041 0.203-0.091 0.466-0.466 0.817-0.946 0.861C21.583 22.103 21.554 22.119 21.521 22.119zM64.135 14.662c0-0.596 0.485-1.081 1.081-1.081 0.596 0 1.081 0.485 1.081 1.081 0 0.415-0.242 0.764-0.586 0.946-0.15 0.079-0.314 0.135-0.495 0.135-0.419 0-0.773-0.247-0.953-0.597C64.188 14.999 64.135 14.838 64.135 14.662zM64.455 16.582c0.086 0.035 0.176 0.061 0.267 0.083v14.146c-2.308-1.541-5.031-2.681-8.024-3.355L64.455 16.582zM44.75 27.704l0.163-0.551 4.593-15.606V22.83c-1.557 0.24-2.757 1.578-2.757 3.201 0 0.301 0.054 0.586 0.131 0.863 0.095 0.341 0.23 0.665 0.424 0.95 0.497 0.735 1.289 1.246 2.202 1.388v3.229l-4.346-4.347L44.75 27.704zM50.001 5.99c1.17 0 2.123 0.953 2.123 2.124 0 0.785-0.433 1.464-1.068 1.832-0.144 0.083-0.296 0.147-0.458 0.196-0.034 0.01-0.067 0.023-0.102 0.032-0.125 0.03-0.256 0.046-0.388 0.054-0.036 0.001-0.07 0.01-0.106 0.01s-0.07-0.009-0.106-0.01c-0.133-0.007-0.263-0.024-0.389-0.054-0.035-0.009-0.067-0.022-0.102-0.032-0.162-0.048-0.315-0.113-0.458-0.196-0.636-0.368-1.068-1.047-1.068-1.832C47.878 6.942 48.83 5.99 50.001 5.99zM50.001 28.292c-0.17 0-0.335-0.023-0.495-0.059-0.355-0.079-0.673-0.247-0.943-0.472-0.307-0.255-0.543-0.584-0.682-0.966-0.087-0.24-0.142-0.495-0.142-0.765 0-1.077 0.758-1.977 1.767-2.203 0.16-0.036 0.325-0.058 0.495-0.058s0.335 0.022 0.495 0.058c1.009 0.227 1.767 1.126 1.767 2.203 0 0.27-0.055 0.525-0.142 0.765-0.139 0.382-0.375 0.711-0.681 0.966-0.271 0.225-0.589 0.393-0.943 0.472C50.336 28.269 50.171 28.292 50.001 28.292zM50.496 29.231c0.913-0.142 1.706-0.652 2.203-1.388 0.192-0.287 0.328-0.61 0.423-0.95 0.076-0.277 0.131-0.562 0.131-0.863 0-1.623-1.199-2.961-2.756-3.201V11.548l4.591 15.603 0.163 0.552-0.409 0.409-4.345 4.345V29.231zM43.306 27.458c-2.989 0.675-5.711 1.815-8.024 3.355V16.666c0.091-0.022 0.181-0.048 0.267-0.083L43.306 27.458zM33.707 14.662c0-0.596 0.484-1.081 1.08-1.081 0.597 0 1.082 0.485 1.082 1.081 0 0.177-0.053 0.337-0.128 0.484-0.179 0.35-0.534 0.597-0.954 0.597-0.181 0-0.345-0.056-0.495-0.135C33.949 15.426 33.707 15.076 33.707 14.662zM31.032 38.486c-0.485 0-0.88-0.395-0.88-0.879s0.395-0.879 0.88-0.879h0.243 37.45c0.001 0 0.001 0 0.002 0 0 0 0 0 0.001 0h0.239c0.485 0 0.88 0.395 0.88 0.88 0 0.484-0.395 0.878-0.88 0.878h-0.606H31.032zM36.059 48.596c-0.128 1.569-0.847 2.9-1.79 3.342 0.107-1.72 0.377-2.619 0.999-3.342H36.059zM39.066 48.596c-0.118 3.126-1.331 5.799-3.057 7.115-0.123-0.207-0.272-0.396-0.45-0.556-0.077-0.07-0.161-0.134-0.247-0.195-0.317-0.22-0.69-0.374-1.108-0.441 0.002-0.56 0.007-1.072 0.02-1.531 1.536-0.395 2.674-2.161 2.823-4.392H39.066zM42.057 48.596c-0.14 5.636-2.63 10.364-6.016 11.931-0.123-0.227-0.281-0.439-0.481-0.641-0.193-0.194-0.424-0.38-0.696-0.563v-0.114c0.264-0.058 0.494-0.168 0.696-0.315 0.513-0.376 0.815-1.018 0.815-1.844 0-0.13-0.019-0.252-0.036-0.376 2.105-1.449 3.588-4.501 3.715-8.078H42.057zM45.049 48.596c-0.151 8.16-3.982 14.937-9.056 16.59-0.12-0.196-0.265-0.374-0.434-0.526-0.109-0.099-0.225-0.191-0.354-0.271 0.125-0.094 0.246-0.193 0.354-0.306 0.505-0.53 0.815-1.256 0.815-2.071 0-0.192-0.016-0.369-0.039-0.541 3.785-1.695 6.564-6.797 6.709-12.875H45.049zM48.051 48.596C47.893 59.3 42.672 68.14 35.888 69.791c-0.096-0.137-0.201-0.272-0.329-0.4-0.193-0.194-0.424-0.381-0.696-0.563v-0.114c0.264-0.058 0.494-0.168 0.696-0.315 0.513-0.376 0.815-1.018 0.815-1.844 0-0.156-0.019-0.304-0.043-0.451 5.452-1.822 9.552-8.943 9.707-17.508H48.051zM51.041 48.596c-0.162 13.263-6.791 24.167-15.298 25.76-0.059-0.067-0.117-0.133-0.183-0.192-0.109-0.1-0.225-0.192-0.354-0.271 0.125-0.094 0.246-0.192 0.354-0.305 0.505-0.531 0.815-1.257 0.815-2.072 0-0.295-0.026-0.565-0.083-0.815 7.132-1.875 12.588-11.035 12.747-22.105H51.041zM31.798 62.393c0-0.549 0.171-1.203 0.982-1.221 0.01 0.001 0.021 0.001 0.031 0.002 0.141 0.012 0.269-0.041 0.367-0.134s0.155-0.223 0.155-0.36v-0.816c0-0.173-0.091-0.334-0.238-0.423-1.09-0.659-1.296-1.215-1.296-2.007 0-1.104 0.839-1.969 1.91-1.969 0.672 0 1.191 0.291 1.463 0.765 0.136 0.233 0.215 0.508 0.215 0.821 0 0.051-0.004 0.104-0.007 0.156-0.032 0.517-0.246 1.064-1.01 1.065-0.273 0-0.495 0.221-0.495 0.494v0.828c0 0.172 0.088 0.332 0.235 0.422 0.487 0.299 0.788 0.571 0.978 0.854 0.196 0.29 0.273 0.594 0.291 0.946 0.003 0.064 0.007 0.127 0.007 0.195 0 1.103-0.839 1.968-1.908 1.968C32.473 63.979 31.798 63.342 31.798 62.393zM31.798 71.896c0-0.549 0.172-1.204 0.985-1.22 0.009 0.001 0.019 0.002 0.027 0.002 0.11 0.007 0.206-0.03 0.292-0.087 0.025-0.017 0.054-0.026 0.076-0.047 0.099-0.093 0.155-0.223 0.155-0.359v-0.03-0.786c0-0.174-0.091-0.334-0.238-0.424-1.09-0.66-1.296-1.215-1.296-2.007 0-1.104 0.839-1.969 1.91-1.969 0.522 0 0.952 0.176 1.248 0.475 0.231 0.234 0.374 0.546 0.413 0.915 0.007 0.065 0.018 0.127 0.018 0.196 0 0.557-0.177 1.221-1.017 1.222-0.273 0-0.495 0.222-0.495 0.494v0.828c0 0.172 0.088 0.333 0.235 0.422 0.266 0.164 0.478 0.319 0.647 0.473 0.329 0.299 0.492 0.59 0.568 0.919 0.043 0.187 0.061 0.385 0.061 0.604 0 1.103-0.839 1.968-1.908 1.968C32.473 73.483 31.798 72.845 31.798 71.896zM33.478 82.988c-1.005 0-1.68-0.638-1.68-1.587 0-0.549 0.171-1.203 0.982-1.221 0.01 0.001 0.021 0.003 0.031 0.003 0.141 0.007 0.269-0.041 0.367-0.135 0.099-0.093 0.155-0.223 0.155-0.359v-0.815c0-0.174-0.091-0.334-0.238-0.424-1.09-0.66-1.296-1.214-1.296-2.007 0-1.104 0.839-1.969 1.91-1.969 0.18 0 0.346 0.027 0.502 0.067 0.507 0.126 0.885 0.442 1.062 0.894 0.073 0.188 0.114 0.396 0.114 0.625 0 0.557-0.177 1.22-1.017 1.221-0.273 0-0.495 0.222-0.495 0.495v0.828c0 0.172 0.088 0.333 0.235 0.422 0.481 0.295 0.78 0.565 0.971 0.844 0.202 0.295 0.28 0.602 0.298 0.962 0.003 0.062 0.007 0.124 0.007 0.189C35.386 82.123 34.547 82.988 33.478 82.988zM60.845 72.687c-0.559 0-1.156-0.045-1.775-0.134-1.963-0.283-3.799-1.667-4.579-3.252 0.755 0.534 1.651 0.917 2.505 1.042 1.572 0.227 2.803-0.397 4.432-1.227 0.349-0.177 0.722-0.367 1.127-0.564 1.311-0.636 2.531-0.663 3.071-0.097 0.229 0.239 0.338 0.583 0.318 0.995C65.871 71.008 64.244 72.687 60.845 72.687zM56.857 78.544c2.031 1.847 3.375 3.067 5.433 2.213 1.05-0.436 1.333-1.462 1.582-2.37 0.154-0.559 0.298-1.061 0.579-1.426 0.016-0.022 0.028-0.047 0.045-0.068 0.483 1.071 0.882 2.196 1.203 3.339 1.297 4.644 1.223 9.561-0.402 12.159-0.671 1.074-1.554 1.619-2.623 1.619-2.99 0-5.989-3.617-9.461-7.804-2.643-3.187-5.627-6.764-9.099-9.253 1.481-1.204 2.857-2.66 4.11-4.319C52.519 74.614 55.025 76.878 56.857 78.544zM36.125 79.718c-0.131-0.297-0.313-0.569-0.566-0.824-0.193-0.193-0.424-0.38-0.696-0.562v-0.114c0.264-0.058 0.494-0.169 0.696-0.315 0.513-0.375 0.815-1.017 0.815-1.843 0-0.283-0.052-0.545-0.128-0.794 8.81-1.898 15.621-13.096 15.783-26.668h2.604C54.47 64.638 46.435 77.836 36.125 79.718zM67.743 46.497l-0.248 1.109H55.136h-3.592-2.991-2.993-2.993-2.991-2.993-4.079l-0.248-1.108L67.743 46.497zM64.359 42.492c0 1.2 0.531 2.281 1.371 3.015H34.271c0.84-0.734 1.371-1.814 1.371-3.015 0-1.208-0.548-2.281-1.397-3.016h31.512C64.908 40.211 64.359 41.283 64.359 42.492zM68.457 35.739H31.545l-7.958-12.401 10.89 8.785c0.009 0.008 0.022 0.01 0.032 0.017 0.02 0.013 0.038 0.025 0.058 0.035 0.02 0.01 0.038 0.018 0.058 0.025 0.019 0.007 0.039 0.012 0.058 0.017 0.023 0.005 0.045 0.007 0.068 0.009 0.013 0.001 0.024 0.007 0.036 0.007 0.009 0 0.017-0.004 0.025-0.004 0.02-0.001 0.04-0.004 0.06-0.008 0.023-0.003 0.044-0.01 0.067-0.019 0.021-0.006 0.04-0.011 0.059-0.02 0.019-0.009 0.034-0.02 0.052-0.031 0.01-0.006 0.021-0.007 0.031-0.014 2.467-1.817 5.517-3.108 8.89-3.811l5.679 5.679c0.031 0.031 0.067 0.048 0.103 0.069 0.021 0.011 0.037 0.03 0.057 0.038 0.061 0.025 0.126 0.039 0.19 0.039H50h0.001c0.017 0 0.032-0.008 0.048-0.01 0.047-0.004 0.095-0.01 0.138-0.028 0.059-0.024 0.114-0.059 0.162-0.107l0.006-0.005 5.675-5.675c3.381 0.701 6.431 1.993 8.892 3.812 0.013 0.009 0.026 0.013 0.039 0.021 0.015 0.009 0.029 0.018 0.044 0.024 0.012 0.006 0.023 0.012 0.037 0.017 0.028 0.011 0.056 0.016 0.086 0.021 0.019 0.004 0.04 0.009 0.06 0.009 0.01 0.001 0.02 0.004 0.029 0.004 0.022 0 0.041-0.009 0.062-0.012 0.035-0.004 0.07-0.009 0.103-0.02 0.014-0.005 0.028-0.009 0.042-0.015 0.017-0.008 0.03-0.022 0.047-0.032 0.019-0.011 0.041-0.016 0.058-0.03l10.888-8.784L68.457 35.739zM78.481 22.119c-0.033 0-0.062-0.017-0.095-0.019-0.48-0.044-0.854-0.396-0.946-0.86-0.013-0.069-0.042-0.132-0.042-0.204 0-0.595 0.485-1.08 1.082-1.08s1.082 0.485 1.082 1.08C79.563 21.633 79.078 22.119 78.481 22.119z" fill="#000000" data-fill-palette-color="quaternary"></path><path d="M37.922 44.685c0.091 0.145 0.249 0.232 0.419 0.232s0.329-0.088 0.419-0.231l1.214-1.932c0.101-0.161 0.101-0.366 0-0.527l-1.214-1.929c-0.091-0.144-0.249-0.231-0.419-0.231s-0.329 0.087-0.419 0.231l-1.212 1.93c-0.101 0.161-0.101 0.365 0 0.526L37.922 44.685zM38.342 41.491l0.629 1-0.629 1.001-0.628-1.001L38.342 41.491z" fill="#000000" data-fill-palette-color="quaternary"></path><path d="M42.633 44.685c0.091 0.145 0.249 0.232 0.419 0.232s0.329-0.088 0.419-0.232l1.213-1.931c0.101-0.161 0.101-0.366 0-0.526l-1.213-1.93c-0.181-0.289-0.658-0.289-0.839 0l-1.213 1.93c-0.101 0.161-0.101 0.365 0 0.526L42.633 44.685zM43.052 41.491l0.628 1-0.628 1.001-0.628-1.001L43.052 41.491z" fill="#000000" data-fill-palette-color="quaternary"></path><path d="M61.239 44.685c0.091 0.145 0.249 0.232 0.419 0.232s0.329-0.088 0.419-0.232l1.213-1.931c0.101-0.161 0.101-0.366 0-0.527l-1.213-1.929c-0.181-0.289-0.658-0.289-0.839 0l-1.213 1.93c-0.101 0.161-0.101 0.365 0 0.526L61.239 44.685zM61.659 41.491l0.629 1-0.629 1.001-0.628-1.001L61.659 41.491z" fill="#000000" data-fill-palette-color="quaternary"></path><path d="M56.527 44.685c0.09 0.145 0.249 0.232 0.419 0.232 0.171 0 0.329-0.088 0.419-0.231l1.215-1.932c0.101-0.161 0.101-0.366 0-0.527l-1.215-1.929c-0.184-0.289-0.658-0.288-0.838 0l-1.213 1.93c-0.101 0.161-0.101 0.365 0 0.526L56.527 44.685zM56.946 41.491l0.63 1-0.63 1.001-0.628-1.001L56.946 41.491z" fill="#000000" data-fill-palette-color="quaternary"></path><path d="M49.707 45.067c0.088 0.065 0.19 0.097 0.294 0.097 0.104 0 0.208-0.032 0.294-0.097l2.942-2.179c0.126-0.093 0.201-0.241 0.201-0.397 0-0.157-0.075-0.305-0.201-0.398l-2.942-2.175c-0.176-0.129-0.413-0.129-0.589 0l-2.944 2.175c-0.126 0.093-0.201 0.241-0.201 0.398 0 0.156 0.074 0.304 0.201 0.397L49.707 45.067zM50.001 40.932l2.11 1.559-2.11 1.562-2.112-1.562L50.001 40.932z" fill="#000000" data-fill-palette-color="quaternary"></path></g></svg></g></svg></g></svg></g></svg></g></svg></g><defs></defs></svg><rect width="395.5199999999999" height="196.98413394794918" fill="none" stroke="none" visibility="hidden"></rect></g></svg></g></svg>